<svg version="1.1" xmlns="http://www.w3.org/2000/svg" xmlns:xlink="http://www.w3.org/1999/xlink" width="131.04688" height="216.78543" viewBox="0,0,131.04688,216.78543"><defs><linearGradient x1="182.5963" y1="203.53358" x2="299.65483" y2="203.53358" gradientUnits="userSpaceOnUse" id="color-1"><stop offset="0" stop-color="#6a6a6a"/><stop offset="1" stop-color="#ffffff"/></linearGradient></defs><g transform="translate(-174.62395,-66.70347)"><g data-paper-data="{&quot;isPaintingLayer&quot;:true}" fill-rule="nonzero" stroke-linecap="butt" stroke-linejoin="miter" stroke-miterlimit="10" stroke-dasharray="" stroke-dashoffset="0" style="mix-blend-mode: normal"><text transform="translate(185.5978,86.95348) scale(0.5,0.5)" font-size="40" xml:space="preserve" fill="#000000" fill-rule="nonzero" stroke="none" stroke-width="1" stroke-linecap="butt" stroke-linejoin="miter" stroke-miterlimit="10" stroke-dasharray="" stroke-dashoffset="0" font-family="Marker" font-weight="normal" text-anchor="start" style="mix-blend-mode: normal"><tspan x="0" dy="0">Mushroom</tspan><tspan x="0" dy="46.15px">AI</tspan><tspan x="0" dy="46.15px">Architecture</tspan></text><path d="M182.5963,258.58291v-110.09867h117.05854v110.09867z" fill="url(#color-1)" stroke="#000000" stroke-width="0.5"/><path d="M243.95188,200.35994c0.93469,0 1.74958,0.51295 2.17852,1.27269c0.08347,0.02024 0.16656,0.04296 0.24922,0.06839c3.01114,0.92648 4.65026,4.89911 6.84058,6.89711c1.22,1.11288 2.87817,1.63873 4.19506,2.63509c1.68254,1.273 2.62297,3.30935 3.82136,5.04583c0.73149,1.05994 1.83062,1.84711 2.49311,2.95149c2.46347,4.1067 3.07929,12.02391 0.35118,16.14789c-3.13985,4.7464 -7.58309,3.63909 -12.35079,3.97976c-2.91861,0.20854 -5.62659,0.80016 -8.57835,0.8064c-3.93782,0 -7.79267,-0.07845 -11.70851,0.38281c-2.03433,0.23963 -6.15763,0.92673 -7.99672,0.36624c-1.72763,-0.52652 -3.8835,-1.15159 -4.64517,-2.78921c-0.79802,-1.71579 2.9367,-7.46328 3.59239,-9.29839c1.4752,-4.12874 1.78772,-8.58643 3.18174,-12.74716c1.41538,-4.22448 3.66373,-7.72504 6.42287,-11.18019c0,0 1.54871,-1.93588 3.48945,-0.40983c2.16296,-0.81784 4.17045,-1.85616 6.28849,-2.86141c0.42971,-0.75689 1.24301,-1.2675 2.17557,-1.2675z" fill="#ffffff" stroke="#000000" stroke-width="0.5"/><g stroke="#000000" stroke-width="0.5"><path d="M243.06129,171.35127c0.73028,-0.59528 1.6907,-0.59528 1.6907,-0.59528l0.0465,0.02513c0.99223,-0.13963 1.98447,-0.27926 2.97671,-0.41889c4.97147,0.0848 9.61397,2.3621 14.26743,4.15744c1.77954,0.68656 3.76027,0.84802 5.45897,1.71553c1.77832,0.90818 3.08606,2.6501 4.52111,3.95915c1.31799,1.20227 3.27223,1.60215 4.50105,2.89542c2.75808,2.90274 3.32412,9.00006 4.25183,12.73855c0.39666,1.59849 1.40566,3.13108 1.27702,4.77301c-0.1282,1.63642 -0.87909,3.30241 -2.00337,4.49837c-2.65844,2.82791 -9.46096,1.87435 -12.89387,1.82817c-6.96554,2.4347 -13.80964,1.59725 -21.04788,2.02772c-9.58618,0.57011 -19.65735,1.06784 -29.23863,-0.01084c-4.42354,-0.49801 -6.46904,-1.47047 -10.22583,-3.95118c-1.80097,-1.18923 -4.31139,-1.70626 -5.40252,-3.5683c-0.75969,-1.29644 0.46818,-2.96856 0.70227,-4.45283c1.99673,-6.94566 5.39946,-14.73463 11.28772,-19.30237c2.30784,-1.79028 5.38311,-3.34205 8.00046,-4.64989c1.75106,-0.87497 3.5428,-1.91418 5.51822,-2.23192c3.08486,-0.4962 6.31994,0.18053 9.37886,0.37407c2.35988,0.14931 4.62617,0.08768 6.93325,0.18894z" fill="#ff0000"/><path d="M215.44841,183.25732c0,-1.38071 1.11929,-2.5 2.5,-2.5c1.38071,0 2.5,1.11929 2.5,2.5c0,1.38071 -1.11929,2.5 -2.5,2.5c-1.38071,0 -2.5,-1.11929 -2.5,-2.5z" fill="#ffffff"/><path d="M231.05049,184.85754c0,-1.38071 1.11929,-2.5 2.5,-2.5c1.38071,0 2.5,1.11929 2.5,2.5c0,1.38071 -1.11929,2.5 -2.5,2.5c-1.38071,0 -2.5,-1.11929 -2.5,-2.5z" fill="#ffffff"/><path d="M247.85273,188.45802c0,-1.38071 1.11929,-2.5 2.5,-2.5c1.38071,0 2.5,1.11929 2.5,2.5c0,1.38071 -1.11929,2.5 -2.5,2.5c-1.38071,0 -2.5,-1.11929 -2.5,-2.5z" fill="#ffffff"/><path d="M232.65071,200.85967c0,-1.38071 1.11929,-2.5 2.5,-2.5c1.38071,0 2.5,1.11929 2.5,2.5c0,1.38071 -1.11929,2.5 -2.5,2.5c-1.38071,0 -2.5,-1.11929 -2.5,-2.5z" fill="#ffffff"/><path d="M215.04836,197.65924c0,-1.38071 1.11929,-2.5 2.5,-2.5c1.38071,0 2.5,1.11929 2.5,2.5c0,1.38071 -1.11929,2.5 -2.5,2.5c-1.38071,0 -2.5,-1.11929 -2.5,-2.5z" fill="#ffffff"/><path d="M245.05236,196.85914c0,-1.38071 1.11929,-2.5 2.5,-2.5c1.38071,0 2.5,1.11929 2.5,2.5c0,1.38071 -1.11929,2.5 -2.5,2.5c-1.38071,0 -2.5,-1.11929 -2.5,-2.5z" fill="#ffffff"/><path d="M258.25412,199.25946c0,-1.38071 1.11929,-2.5 2.5,-2.5c1.38071,0 2.5,1.11929 2.5,2.5c0,1.38071 -1.11929,2.5 -2.5,2.5c-1.38071,0 -2.5,-1.11929 -2.5,-2.5z" fill="#ffffff"/><path d="M257.85407,190.45828c0,-1.38071 1.11929,-2.5 2.5,-2.5c1.38071,0 2.5,1.11929 2.5,2.5c0,1.38071 -1.11929,2.5 -2.5,2.5c-1.38071,0 -2.5,-1.11929 -2.5,-2.5z" fill="#ffffff"/><path d="M234.65097,192.8586c0,-1.38071 1.11929,-2.5 2.5,-2.5c1.38071,0 2.5,1.11929 2.5,2.5c0,1.38071 -1.11929,2.5 -2.5,2.5c-1.38071,0 -2.5,-1.11929 -2.5,-2.5z" fill="#ffffff"/><path d="M220.24905,190.05823c0,-1.38071 1.11929,-2.5 2.5,-2.5c1.38071,0 2.5,1.11929 2.5,2.5c0,1.38071 -1.11929,2.5 -2.5,2.5c-1.38071,0 -2.5,-1.11929 -2.5,-2.5z" fill="#ffffff"/><path d="M233.45081,174.45615c0,-1.38071 1.11929,-2.5 2.5,-2.5c1.38071,0 2.5,1.11929 2.5,2.5c0,1.38071 -1.11929,2.5 -2.5,2.5c-1.38071,0 -2.5,-1.11929 -2.5,-2.5z" fill="#ffffff"/><path d="M245.45241,179.65684c0,-1.38071 1.11929,-2.5 2.5,-2.5c1.38071,0 2.5,1.11929 2.5,2.5c0,1.38071 -1.11929,2.5 -2.5,2.5c-1.38071,0 -2.5,-1.11929 -2.5,-2.5z" fill="#ffffff"/><path d="M259.05422,179.25679c0,-1.38071 1.11929,-2.5 2.5,-2.5c1.38071,0 2.5,1.11929 2.5,2.5c0,1.38071 -1.11929,2.5 -2.5,2.5c-1.38071,0 -2.5,-1.11929 -2.5,-2.5z" fill="#ffffff"/><path d="M268.65551,192.0585c0,-1.38071 1.11929,-2.5 2.5,-2.5c1.38071,0 2.5,1.11929 2.5,2.5c0,1.38071 -1.11929,2.5 -2.5,2.5c-1.38071,0 -2.5,-1.11929 -2.5,-2.5z" fill="#ffffff"/><path d="M271.85594,201.25972c0,-1.38071 1.11929,-2.5 2.5,-2.5c1.38071,0 2.5,1.11929 2.5,2.5c0,1.38071 -1.11929,2.5 -2.5,2.5c-1.38071,0 -2.5,-1.11929 -2.5,-2.5z" fill="#ffffff"/><path d="M209.04756,191.25839c0,-1.38071 1.11929,-2.5 2.5,-2.5c1.38071,0 2.5,1.11929 2.5,2.5c0,1.38071 -1.11929,2.5 -2.5,2.5c-1.38071,0 -2.5,-1.11929 -2.5,-2.5z" fill="#ffffff"/><path d="M224.64964,200.45962c0,-1.38071 1.11929,-2.5 2.5,-2.5c1.38071,0 2.5,1.11929 2.5,2.5c0,1.38071 -1.11929,2.5 -2.5,2.5c-1.38071,0 -2.5,-1.11929 -2.5,-2.5z" fill="#ffffff"/><path d="M221.44921,178.05663c0,-1.38071 1.11929,-2.5 2.5,-2.5c1.38071,0 2.5,1.11929 2.5,2.5c0,1.38071 -1.11929,2.5 -2.5,2.5c-1.38071,0 -2.5,-1.11929 -2.5,-2.5z" fill="#ffffff"/><path d="M240.65177,187.65791c0,-1.38071 1.11929,-2.5 2.5,-2.5c1.38071,0 2.5,1.11929 2.5,2.5c0,1.38071 -1.11929,2.5 -2.5,2.5c-1.38071,0 -2.5,-1.11929 -2.5,-2.5z" fill="#ffffff"/><path d="M264.65497,186.0577c0,-1.38071 1.11929,-2.5 2.5,-2.5c1.38071,0 2.5,1.11929 2.5,2.5c0,1.38071 -1.11929,2.5 -2.5,2.5c-1.38071,0 -2.5,-1.11929 -2.5,-2.5z" fill="#ffffff"/><path d="M207.44734,202.05983c0,-1.38071 1.11929,-2.5 2.5,-2.5c1.38071,0 2.5,1.11929 2.5,2.5c0,1.38071 -1.11929,2.5 -2.5,2.5c-1.38071,0 -2.5,-1.11929 -2.5,-2.5z" fill="#ffffff"/></g><text transform="translate(174.87395,277.2389) scale(0.5,0.5)" font-size="40" xml:space="preserve" fill="#000000" fill-rule="nonzero" stroke="none" stroke-width="1" stroke-linecap="butt" stroke-linejoin="miter" stroke-miterlimit="10" stroke-dasharray="" stroke-dashoffset="0" font-family="Sans Serif" font-weight="normal" text-anchor="start" style="mix-blend-mode: normal"><tspan x="0" dy="0">Mushroom AI</tspan></text><text transform="translate(15.21008,268.83554) scale(0.5,0.5)" font-size="40" xml:space="preserve" fill="#000000" fill-rule="nonzero" stroke="none" stroke-width="1" stroke-linecap="butt" stroke-linejoin="miter" stroke-miterlimit="10" stroke-dasharray="" stroke-dashoffset="0" font-family="Curly" font-weight="normal" text-anchor="start" style="mix-blend-mode: normal"><tspan x="0" dy="0"> </tspan></text></g></g></svg>